<svg version="1.1" xmlns="http://www.w3.org/2000/svg" viewBox="0 0 1632.5875959473992 1191.7670601427203" width="3265.1751918947984" height="2383.5341202854406">
  <!-- svg-source:excalidraw -->
  
  <defs>
    <style class="style-fonts">
      @font-face {
        font-family: "Virgil";
        src: url("https://excalidraw.com/Virgil.woff2");
      }
      @font-face {
        font-family: "Cascadia";
        src: url("https://excalidraw.com/Cascadia.woff2");
      }
    </style>
    
  </defs>
  <rect x="0" y="0" width="1632.5875959473992" height="1191.7670601427203" fill="#ffffff"></rect><g stroke-linecap="round" transform="translate(561.5816496903017 439.8433374385977) rotate(0 141.96179512846192 68.65082352081208)"><path d="M32 0 C120.25 -2.12, 204.41 -1.92, 251.92 0 C274.33 -1, 286.09 10.62, 283.92 32 C281.46 61.13, 279.41 86.81, 283.92 105.3 C286.24 123.52, 275.77 137.07, 251.92 137.3 C194.41 136.18, 131.3 137.99, 32 137.3 C9.44 139.39, -3.15 129.39, 0 105.3 C4.28 81.83, -0.57 63.97, 0 32 C0.58 7.69, 9.95 3.43, 32 0" stroke="none" stroke-width="0" fill="#b2f2bb"></path><path d="M32 0 C117.99 -1, 203.71 -1.77, 251.92 0 M32 0 C80.12 0.64, 126.4 1.39, 251.92 0 M251.92 0 C275.22 -0.21, 282.03 12.56, 283.92 32 M251.92 0 C271.06 0.3, 281.94 11.59, 283.92 32 M283.92 32 C282.69 49.97, 282.35 69.78, 283.92 105.3 M283.92 32 C282.99 53.76, 283.08 74.77, 283.92 105.3 M283.92 105.3 C282.91 126.78, 273.17 137.85, 251.92 137.3 M283.92 105.3 C285.2 127.09, 275.53 137.67, 251.92 137.3 M251.92 137.3 C206.98 137.07, 161.61 137.17, 32 137.3 M251.92 137.3 C173.84 139.06, 97.21 138.93, 32 137.3 M32 137.3 C11.21 136.48, -1.62 127.86, 0 105.3 M32 137.3 C9.94 138.91, 0.65 125.9, 0 105.3 M0 105.3 C2.16 76.8, -0.65 52.47, 0 32 M0 105.3 C1.04 87.25, 0.44 70.4, 0 32 M0 32 C0.55 11.99, 10.52 1.96, 32 0 M0 32 C-0.99 11.04, 12.8 1.63, 32 0" stroke="#1e1e1e" stroke-width="2" fill="none"></path></g><g transform="translate(606.2714874213027 490.9941609594098) rotate(0 97.27195739746097 17.5)"><text x="97.27195739746094" y="0" font-family="Virgil, Segoe UI Emoji" font-size="28px" fill="#1971c2" text-anchor="middle" style="white-space: pre;" direction="ltr" dominant-baseline="text-before-edge">Kong Gateway</text></g><g stroke-linecap="round" transform="translate(582.2857888919596 10) rotate(0 126.06420141284525 55.32603353234373)"><path d="M27.66 0 C82.91 1.76, 134 0.91, 224.47 0 C241.96 3.28, 250.94 12.32, 252.13 27.66 C251.55 42.27, 253.13 53.29, 252.13 82.99 C253.08 97.86, 244.07 107.44, 224.47 110.65 C172.94 109.23, 123.73 113.27, 27.66 110.65 C9.73 113.03, -2.07 101.17, 0 82.99 C-3.12 69.51, -2.09 48.69, 0 27.66 C-3.31 10.25, 8.42 1.68, 27.66 0" stroke="none" stroke-width="0" fill="#a5d8ff"></path><path d="M27.66 0 C82.46 -0.28, 133.58 2.21, 224.47 0 M27.66 0 C84.61 0.22, 141.87 0.22, 224.47 0 M224.47 0 C242.84 1.84, 250.18 7.96, 252.13 27.66 M224.47 0 C241.98 0.87, 250.33 6.93, 252.13 27.66 M252.13 27.66 C250.16 44.35, 251.81 62.41, 252.13 82.99 M252.13 27.66 C251.94 48.54, 251.47 69.33, 252.13 82.99 M252.13 82.99 C253.33 102.35, 241.02 108.68, 224.47 110.65 M252.13 82.99 C250.09 99.14, 242.92 109.88, 224.47 110.65 M224.47 110.65 C169.99 111.04, 118.69 109.55, 27.66 110.65 M224.47 110.65 C146.6 111.23, 70.07 110.82, 27.66 110.65 M27.66 110.65 C9.87 112.06, -1.76 101.21, 0 82.99 M27.66 110.65 C11.26 110.81, -0.28 103.29, 0 82.99 M0 82.99 C-0.7 67, -0.38 47.51, 0 27.66 M0 82.99 C0.21 65.31, -0.35 46.52, 0 27.66 M0 27.66 C-1.7 10.71, 9.45 0.36, 27.66 0 M0 27.66 C1.07 8.24, 8.84 -0.05, 27.66 0" stroke="#1e1e1e" stroke-width="2" fill="none"></path></g><g transform="translate(618.9460291231642 47.82603353234372) rotate(0 89.40396118164062 17.500000000000004)"><text x="89.40396118164062" y="0" font-family="Virgil, Segoe UI Emoji" font-size="28px" fill="#1e1e1e" text-anchor="middle" style="white-space: pre;" direction="ltr" dominant-baseline="text-before-edge">Web frontend</text></g><g stroke-linecap="round" transform="translate(1398.3111130054492 459.4861745800891) rotate(0 112.138241470975 50.4193608790674)"><path d="M25.21 0 C60.81 4.46, 102.16 -0.01, 199.07 0 C218.8 1.35, 226.74 10.16, 224.28 25.21 C224.34 37.62, 220.55 50.5, 224.28 75.63 C224.31 95.87, 215.54 100.28, 199.07 100.84 C136.36 102.64, 73.73 100.07, 25.21 100.84 C7.22 103.53, 0.24 90.69, 0 75.63 C3.24 67.67, -2.74 54.26, 0 25.21 C-0.38 5.87, 6.63 2.17, 25.21 0" stroke="none" stroke-width="0" fill="#1e1e1e"></path><path d="M25.21 0 C86.43 0.49, 148.9 0.32, 199.07 0 M25.21 0 C87.14 -1.03, 149.82 -1.11, 199.07 0 M199.07 0 C215.35 1.43, 225.32 6.45, 224.28 25.21 M199.07 0 C217.78 2.04, 223.95 9.29, 224.28 25.21 M224.28 25.21 C224.18 39.25, 222.82 50.64, 224.28 75.63 M224.28 25.21 C224.4 39.36, 223.82 51.63, 224.28 75.63 M224.28 75.63 C223.98 92.75, 217.01 100.69, 199.07 100.84 M224.28 75.63 C224.53 92.28, 216.88 102.89, 199.07 100.84 M199.07 100.84 C151.32 98.51, 108.72 100.61, 25.21 100.84 M199.07 100.84 C151.38 102.55, 103.66 102.05, 25.21 100.84 M25.21 100.84 C8.08 102.51, -1.44 90.68, 0 75.63 M25.21 100.84 C6.24 100.67, -2.17 92.24, 0 75.63 M0 75.63 C-2.08 61.34, -0.78 47.51, 0 25.21 M0 75.63 C-0.4 62.5, 0.54 48.56, 0 25.21 M0 25.21 C1.83 6.84, 10.04 -1.19, 25.21 0 M0 25.21 C1.15 7.82, 8.23 -1.78, 25.21 0" stroke="#ffffff" stroke-width="2" fill="none"></path></g><g transform="translate(1448.8594115442952 484.90553545915645) rotate(0 61.589942932128906 25)"><text x="61.589942932128906" y="0" font-family="Virgil, Segoe UI Emoji" font-size="20px" fill="#ffffff" text-anchor="middle" style="white-space: pre;" direction="ltr" dominant-baseline="text-before-edge">3rd Party</text><text x="61.589942932128906" y="25" font-family="Virgil, Segoe UI Emoji" font-size="20px" fill="#ffffff" text-anchor="middle" style="white-space: pre;" direction="ltr" dominant-baseline="text-before-edge">Auth Service</text></g><g mask="url(#mask-SMywLB9uvINOKtARWXQvo)" stroke-linecap="round"><g transform="translate(698.3528676578846 130.02316081468746) rotate(0 -1.3597479418879175 150.2514867532341)"><path d="M-0.03 0.07 C-0.49 50.12, -2.34 250.28, -2.81 300.34 M0.22 -0.02 C-0.24 50.04, -2.41 250.49, -2.94 300.52" stroke="#6741d9" stroke-width="2" fill="none"></path></g><g transform="translate(698.3528676578846 130.02316081468746) rotate(0 -1.3597479418879175 150.2514867532341)"><path d="M-12.9 272.23 C-10.35 278.97, -8.14 285.7, -2.94 300.52 M-12.9 272.23 C-9.49 282.3, -5.86 292.19, -2.94 300.52" stroke="#6741d9" stroke-width="2" fill="none"></path></g><g transform="translate(698.3528676578846 130.02316081468746) rotate(0 -1.3597479418879175 150.2514867532341)"><path d="M7.62 272.45 C5.25 279.13, 2.54 285.81, -2.94 300.52 M7.62 272.45 C3.81 282.43, 0.21 292.25, -2.94 300.52" stroke="#6741d9" stroke-width="2" fill="none"></path></g></g><mask id="mask-SMywLB9uvINOKtARWXQvo"><rect x="0" y="0" fill="#fff" width="801.1427763559683" height="530.3784936885977"></rect><rect x="692.079914956792" y="257.7008272516426" fill="#000" width="9.755996704101562" height="45" opacity="1"></rect></mask><g transform="translate(692.0799149567921 257.70082725164264) rotate(0 4.913204759204746 22.573820316278983)"><text x="4.877998352050781" y="0" font-family="Virgil, Segoe UI Emoji" font-size="36px" fill="#6741d9" text-anchor="middle" style="white-space: pre;" direction="ltr" dominant-baseline="text-before-edge">1</text></g><g transform="translate(292.506412574731 212.4780029226008) rotate(0 179.079833984375 30)"><text x="0" y="0" font-family="Virgil, Segoe UI Emoji" font-size="16px" fill="#f08c00" text-anchor="start" style="white-space: pre;" direction="ltr" dominant-baseline="text-before-edge"></text><text x="0" y="20" font-family="Virgil, Segoe UI Emoji" font-size="16px" fill="#f08c00" text-anchor="start" style="white-space: pre;" direction="ltr" dominant-baseline="text-before-edge">curl -i http://localhost:8000/test \ </text><text x="0" y="40" font-family="Virgil, Segoe UI Emoji" font-size="16px" fill="#f08c00" text-anchor="start" style="white-space: pre;" direction="ltr" dominant-baseline="text-before-edge">-H "Authorization: Bearer eyJhbzI1NiIsIn......" </text></g><g mask="url(#mask-gsYrjQdnsDA61yBsCI6P2)" stroke-linecap="round"><g transform="translate(857.3017310894463 484.6375430814531) rotate(0 262.71418668822605 0.3253161217182594)"><path d="M0.01 0.1 C87.58 0.16, 438 0.4, 525.59 0.43 M-0.16 0.02 C87.39 0.11, 437.92 0.57, 525.54 0.63" stroke="#6741d9" stroke-width="2" fill="none"></path></g><g transform="translate(857.3017310894463 484.6375430814531) rotate(0 262.71418668822605 0.3253161217182594)"><path d="M497.34 10.86 C508.81 7.01, 519.93 2.89, 525.54 0.63 M497.34 10.86 C503.54 8.69, 509.5 6.28, 525.54 0.63" stroke="#6741d9" stroke-width="2" fill="none"></path></g><g transform="translate(857.3017310894463 484.6375430814531) rotate(0 262.71418668822605 0.3253161217182594)"><path d="M497.36 -9.66 C508.83 -5.31, 519.94 -1.22, 525.54 0.63 M497.36 -9.66 C503.54 -7.36, 509.5 -5.31, 525.54 0.63" stroke="#6741d9" stroke-width="2" fill="none"></path></g></g><mask id="mask-gsYrjQdnsDA61yBsCI6P2"><rect x="0" y="0" fill="#fff" width="1482.769333753607" height="585.0475356333266"></rect><rect x="1107.2195381588313" y="462.34253935738985" fill="#000" width="25.631988525390625" height="45" opacity="1"></rect></mask><g transform="translate(1107.2195381588313 462.3425393573898) rotate(0 12.796379618841002 22.62031984578155)"><text x="12.815994262695312" y="0" font-family="Virgil, Segoe UI Emoji" font-size="36px" fill="#6741d9" text-anchor="middle" style="white-space: pre;" direction="ltr" dominant-baseline="text-before-edge">2</text></g><g stroke-linecap="round" transform="translate(272.9955665422539 187.81639794203892) rotate(0 200.19574545786514 55.478520223554455)"><path d="M27.74 0 C120.09 -1.77, 214.19 -1.54, 372.65 0 M27.74 0 C122.88 -0.24, 217.36 0.19, 372.65 0 M372.65 0 C392.23 -1.34, 400.62 8.22, 400.39 27.74 M372.65 0 C392.17 -1.68, 398.7 7.67, 400.39 27.74 M400.39 27.74 C399.09 44.33, 399.3 62.2, 400.39 83.22 M400.39 27.74 C401 40.21, 399.22 51.94, 400.39 83.22 M400.39 83.22 C399.19 101.68, 391.19 110.34, 372.65 110.96 M400.39 83.22 C399.64 99.66, 390.85 113.15, 372.65 110.96 M372.65 110.96 C255.73 109.98, 139.71 110.57, 27.74 110.96 M372.65 110.96 C241.87 111.89, 110.36 112.83, 27.74 110.96 M27.74 110.96 C8.83 110.49, 1.24 100.05, 0 83.22 M27.74 110.96 C7.63 108.91, -1.6 103.4, 0 83.22 M0 83.22 C-0.87 65.72, -1.31 52.67, 0 27.74 M0 83.22 C0.5 72.01, -0.4 59.27, 0 27.74 M0 27.74 C1.7 8.66, 10.78 -2, 27.74 0 M0 27.74 C1.44 7.33, 7.01 -1.97, 27.74 0" stroke="#6741d9" stroke-width="2" fill="none"></path></g><g mask="url(#mask-EXFToxSOt1u_25gs7PGSu)" stroke-linecap="round"><g transform="translate(1386.7909511088217 549.0943917499908) rotate(0 -263.8092827918732 5.274610140899711)"><path d="M0.03 -0.02 C-87.89 1.76, -439.64 8.75, -527.59 10.54 M-0.16 -0.18 C-88.1 1.64, -439.72 8.97, -527.65 10.73" stroke="#6741d9" stroke-width="2" fill="none"></path></g><g transform="translate(1386.7909511088217 549.0943917499908) rotate(0 -263.8092827918732 5.274610140899711)"><path d="M-499.68 -0.11 C-507.8 3.31, -515.92 6.3, -527.65 10.73 M-499.68 -0.11 C-509.62 3.74, -519.91 7.73, -527.65 10.73" stroke="#6741d9" stroke-width="2" fill="none"></path></g><g transform="translate(1386.7909511088217 549.0943917499908) rotate(0 -263.8092827918732 5.274610140899711)"><path d="M-499.26 20.41 C-507.47 17.91, -515.71 14.99, -527.65 10.73 M-499.26 20.41 C-509.37 16.88, -519.81 13.49, -527.65 10.73" stroke="#6741d9" stroke-width="2" fill="none"></path></g></g><mask id="mask-EXFToxSOt1u_25gs7PGSu"><rect x="0" y="0" fill="#fff" width="2014.5264208674466" height="659.6802969230048"></rect><rect x="1110.6652206240408" y="531.8873443364979" fill="#000" width="24.5159912109375" height="45" opacity="1"></rect></mask><g transform="translate(1110.6652206240408 531.8873443364978) rotate(0 12.3164476929079 22.48165755439271)"><text x="12.25799560546875" y="0" font-family="Virgil, Segoe UI Emoji" font-size="36px" fill="#6741d9" text-anchor="middle" style="white-space: pre;" direction="ltr" dominant-baseline="text-before-edge">3</text></g><g stroke-linecap="round" transform="translate(898.5273094255531 603.3546858811889) rotate(0 236.42661580794146 132.9891485615177)"><path d="M32 0 C193 -2.88, 355.71 -2.1, 440.85 0 M32 0 C131.39 0.65, 231.14 0.14, 440.85 0 M440.85 0 C462.22 -0.99, 474.73 12.06, 472.85 32 M440.85 0 C460.02 1.13, 474.66 9.91, 472.85 32 M472.85 32 C475.21 83.49, 475.11 133.85, 472.85 233.98 M472.85 32 C473.79 93.54, 473.77 153.61, 472.85 233.98 M472.85 233.98 C472.57 254.68, 461.96 265.91, 440.85 265.98 M472.85 233.98 C472.67 256.58, 460.99 265.91, 440.85 265.98 M440.85 265.98 C353.7 264.62, 267.14 264.6, 32 265.98 M440.85 265.98 C327.45 267, 213.59 266.66, 32 265.98 M32 265.98 C9.93 267.31, 1.08 254.49, 0 233.98 M32 265.98 C9.12 266.87, -0.01 254.13, 0 233.98 M0 233.98 C-2.83 160.69, 0.27 89.28, 0 32 M0 233.98 C-1.02 154.99, -2.23 75.4, 0 32 M0 32 C0.08 10.92, 11.48 -1.19, 32 0 M0 32 C-1.37 12.32, 10.29 -1.04, 32 0" stroke="#6741d9" stroke-width="2" fill="none"></path></g><g transform="translate(937.8937270272631 628.1059086445255) rotate(0 186.61589050292974 20)"><text x="0" y="0" font-family="Virgil, Segoe UI Emoji" font-size="16px" fill="#1e1e1e" text-anchor="start" style="white-space: pre;" direction="ltr" dominant-baseline="text-before-edge">3. Return User data information such as roles</text><text x="0" y="20" font-family="Virgil, Segoe UI Emoji" font-size="16px" fill="#1e1e1e" text-anchor="start" style="white-space: pre;" direction="ltr" dominant-baseline="text-before-edge"></text></g><g transform="translate(943.5876990518348 676.1060628995473) rotate(0 188.74386596679688 80)"><text x="0" y="0" font-family="Virgil, Segoe UI Emoji" font-size="16px" fill="#f08c00" text-anchor="start" style="white-space: pre;" direction="ltr" dominant-baseline="text-before-edge">'x-user-payload': '{</text><text x="0" y="20" font-family="Virgil, Segoe UI Emoji" font-size="16px" fill="#f08c00" text-anchor="start" style="white-space: pre;" direction="ltr" dominant-baseline="text-before-edge">    "username":"admin",</text><text x="0" y="40" font-family="Virgil, Segoe UI Emoji" font-size="16px" fill="#f08c00" text-anchor="start" style="white-space: pre;" direction="ltr" dominant-baseline="text-before-edge">    "description":"Ini adalah user administrator",</text><text x="0" y="60" font-family="Virgil, Segoe UI Emoji" font-size="16px" fill="#f08c00" text-anchor="start" style="white-space: pre;" direction="ltr" dominant-baseline="text-before-edge">    "email":"admin@company.com",</text><text x="0" y="80" font-family="Virgil, Segoe UI Emoji" font-size="16px" fill="#f08c00" text-anchor="start" style="white-space: pre;" direction="ltr" dominant-baseline="text-before-edge">    "name":"Administrator",</text><text x="0" y="100" font-family="Virgil, Segoe UI Emoji" font-size="16px" fill="#f08c00" text-anchor="start" style="white-space: pre;" direction="ltr" dominant-baseline="text-before-edge">    "phoneNumber":"(022) 877659762",</text><text x="0" y="120" font-family="Virgil, Segoe UI Emoji" font-size="16px" fill="#f08c00" text-anchor="start" style="white-space: pre;" direction="ltr" dominant-baseline="text-before-edge">    "roles":["ADMIN, MARKETING, MANAGER"] </text><text x="0" y="140" font-family="Virgil, Segoe UI Emoji" font-size="16px" fill="#f08c00" text-anchor="start" style="white-space: pre;" direction="ltr" dominant-baseline="text-before-edge">}'</text></g><g mask="url(#mask-ftOCESyOboQhpb_Up6g9s)" stroke-linecap="round"><g transform="translate(680.094946287704 597.3097999629601) rotate(0 -122.13211057182383 215.800986375584)"><path d="M-0.56 -0.35 C-41.64 71.93, -204.83 361.17, -245.61 433.19 M1.35 -1.59 C-39.42 70.41, -202.04 359.16, -243.3 431.57" stroke="#6741d9" stroke-width="2" fill="none"></path></g><g transform="translate(680.094946287704 597.3097999629601) rotate(0 -122.13211057182383 215.800986375584)"><path d="M-238.35 401.98 C-240.9 411.66, -240.56 423.24, -243.3 431.57 M-238.35 401.98 C-239.24 409.91, -241.43 417.86, -243.3 431.57" stroke="#6741d9" stroke-width="2" fill="none"></path></g><g transform="translate(680.094946287704 597.3097999629601) rotate(0 -122.13211057182383 215.800986375584)"><path d="M-220.49 412.09 C-229.63 417.94, -235.92 425.76, -243.3 431.57 M-220.49 412.09 C-225.97 417.34, -232.84 422.63, -243.3 431.57" stroke="#6741d9" stroke-width="2" fill="none"></path></g></g><mask id="mask-ftOCESyOboQhpb_Up6g9s"><rect x="0" y="0" fill="#fff" width="1024.9386650745764" height="1129.5410366052215"></rect><rect x="546.1530902512013" y="790.9254182840908" fill="#000" width="23.039993286132812" height="45" opacity="1"></rect></mask><g transform="translate(546.1530902512013 790.9254182840909) rotate(0 11.809745464678826 22.185368054453306)"><text x="11.519996643066406" y="0" font-family="Virgil, Segoe UI Emoji" font-size="36px" fill="#6741d9" text-anchor="middle" style="white-space: pre;" direction="ltr" dominant-baseline="text-before-edge">4</text></g><g stroke-linecap="round" transform="translate(317.76662380106086 1041.9339602811679) rotate(0 109.38159441323316 68.21812979553499)"><path d="M32 0 C84.92 -2.19, 133.19 -1.32, 186.76 0 M32 0 C91.79 0.81, 150.69 1.5, 186.76 0 M186.76 0 C206.13 1.72, 217.82 11.68, 218.76 32 M186.76 0 C206.59 0.3, 220.63 11.39, 218.76 32 M218.76 32 C218.12 54.6, 217.99 79.05, 218.76 104.44 M218.76 32 C218.35 48.24, 218.68 62.04, 218.76 104.44 M218.76 104.44 C218.25 125.04, 210.07 136.89, 186.76 136.44 M218.76 104.44 C220.59 127.45, 206.6 137.11, 186.76 136.44 M186.76 136.44 C139.88 136.88, 90.04 134.88, 32 136.44 M186.76 136.44 C154.77 136.32, 125.41 135.88, 32 136.44 M32 136.44 C11.81 137.4, -1.2 124.58, 0 104.44 M32 136.44 C10.59 134.32, -1.31 127.06, 0 104.44 M0 104.44 C-1.29 75.75, -0.5 50.07, 0 32 M0 104.44 C0.32 86.93, 0.93 67.12, 0 32 M0 32 C0.63 10.11, 8.87 -1.73, 32 0 M0 32 C0.96 12.53, 11.94 0.12, 32 0" stroke="#1971c2" stroke-width="2" fill="none"></path></g><g transform="translate(376.2385338242903 1084.4680339130218) rotate(0 45.31996154785156 12.5)"><text x="45.31996154785156" y="0" font-family="Virgil, Segoe UI Emoji" font-size="20px" fill="#1971c2" text-anchor="middle" style="white-space: pre;" direction="ltr" dominant-baseline="text-before-edge">Service A</text></g><g transform="translate(338.2285545762434 1119.4680339130218) rotate(0 83.32994079589844 12.5)"><text x="83.32994079589844" y="0" font-family="Virgil, Segoe UI Emoji" font-size="20px" fill="#1971c2" text-anchor="middle" style="white-space: pre;" direction="ltr" dominant-baseline="text-before-edge">http://backendB/</text></g><g stroke-linecap="round" transform="translate(611.5174911448835 1045.33080055165) rotate(0 109.38159441323319 68.21812979553499)"><path d="M32 0 C81.69 -2.72, 131.57 -0.91, 186.76 0 M32 0 C65.56 0.38, 99.94 0.47, 186.76 0 M186.76 0 C209.14 -1.16, 217.91 10.08, 218.76 32 M186.76 0 C205.85 -0.94, 220.77 11.11, 218.76 32 M218.76 32 C217.22 54.44, 220.54 72.49, 218.76 104.44 M218.76 32 C220.17 47.31, 219.54 63.15, 218.76 104.44 M218.76 104.44 C218.2 126.58, 208.25 135.56, 186.76 136.44 M218.76 104.44 C218.25 124.19, 210.24 135.42, 186.76 136.44 M186.76 136.44 C127.87 135.76, 69.72 135.26, 32 136.44 M186.76 136.44 C147.23 136.45, 107.96 137.19, 32 136.44 M32 136.44 C10.88 138.12, -0.86 127.59, 0 104.44 M32 136.44 C9.09 138.43, -0.65 125.18, 0 104.44 M0 104.44 C1.54 83.75, -1.28 65.11, 0 32 M0 104.44 C-0.83 88.95, 0.22 74.34, 0 32 M0 32 C1.9 11.63, 12.37 1.45, 32 0 M0 32 C1.58 8.9, 11.26 -1.12, 32 0" stroke="#1971c2" stroke-width="2" fill="none"></path></g><g transform="translate(669.9894011681129 1087.864874183504) rotate(0 45.31996154785156 12.5)"><text x="45.31996154785156" y="0" font-family="Virgil, Segoe UI Emoji" font-size="20px" fill="#1971c2" text-anchor="middle" style="white-space: pre;" direction="ltr" dominant-baseline="text-before-edge">Service A</text></g><g transform="translate(631.979421920066 1122.864874183504) rotate(0 83.32994079589844 12.5)"><text x="83.32994079589844" y="0" font-family="Virgil, Segoe UI Emoji" font-size="20px" fill="#1971c2" text-anchor="middle" style="white-space: pre;" direction="ltr" dominant-baseline="text-before-edge">http://backendB/</text></g><g mask="url(#mask-Ae_WTr619H0lreD1tbDMY)" stroke-linecap="round"><g transform="translate(684.0941739509051 594.6028207667462) rotate(0 13.854910979673434 218.5705741082018)"><path d="M0.17 -0.22 C4.73 72.61, 22.76 364.21, 27.32 437.11 M-0.04 0.2 C4.59 73.04, 23.18 364.49, 27.75 437.36" stroke="#6741d9" stroke-width="2" fill="none"></path></g><g transform="translate(684.0941739509051 594.6028207667462) rotate(0 13.854910979673434 218.5705741082018)"><path d="M15.73 409.87 C18.74 417.13, 22.3 425.33, 27.75 437.36 M15.73 409.87 C19.08 417.73, 22.36 425.67, 27.75 437.36" stroke="#6741d9" stroke-width="2" fill="none"></path></g><g transform="translate(684.0941739509051 594.6028207667462) rotate(0 13.854910979673434 218.5705741082018)"><path d="M36.21 408.58 C33.46 416.23, 31.26 424.8, 27.75 437.36 M36.21 408.58 C33.71 416.79, 31.14 425.1, 27.75 437.36" stroke="#6741d9" stroke-width="2" fill="none"></path></g></g><mask id="mask-Ae_WTr619H0lreD1tbDMY"><rect x="0" y="0" fill="#fff" width="811.6583223887235" height="1131.8370540908413"></rect><rect x="686.3562515267479" y="790.7199374287937" fill="#000" width="23.039993286132812" height="45" opacity="1"></rect></mask><g transform="translate(686.3562515267479 790.7199374287936) rotate(0 11.592833403830639 22.453457446154232)"><text x="11.519996643066406" y="0" font-family="Virgil, Segoe UI Emoji" font-size="36px" fill="#6741d9" text-anchor="middle" style="white-space: pre;" direction="ltr" dominant-baseline="text-before-edge">4</text></g><g transform="translate(283.8994798953851 200.76451336814074) rotate(0 180.39987182617188 20)"><text x="0" y="0" font-family="Virgil, Segoe UI Emoji" font-size="16px" fill="#1e1e1e" text-anchor="start" style="white-space: pre;" direction="ltr" dominant-baseline="text-before-edge">1. Access the resource for example using curl:</text><text x="0" y="20" font-family="Virgil, Segoe UI Emoji" font-size="16px" fill="#1e1e1e" text-anchor="start" style="white-space: pre;" direction="ltr" dominant-baseline="text-before-edge"></text></g><g transform="translate(940.1588434191578 380.0288920945488) rotate(0 164.75985717773438 20)"><text x="0" y="0" font-family="Virgil, Segoe UI Emoji" font-size="16px" fill="#f08c00" text-anchor="start" style="white-space: pre;" direction="ltr" dominant-baseline="text-before-edge">http://localhost:2300/auth/check</text><text x="0" y="20" font-family="Virgil, Segoe UI Emoji" font-size="16px" fill="#f08c00" text-anchor="start" style="white-space: pre;" direction="ltr" dominant-baseline="text-before-edge">Authorization: Bearer eyJhbzI1NiIsIn......" </text></g><g stroke-linecap="round" transform="translate(918.5676883107537 314.3259013419791) rotate(0 179.40336855395748 66.56149782398057)"><path d="M32 0 C130.01 0.64, 229.43 0.93, 326.81 0 M32 0 C107.59 -1.7, 182.51 -1.59, 326.81 0 M326.81 0 C348.54 0.57, 357.32 12.6, 358.81 32 M326.81 0 C347.44 -1.3, 360.84 12.12, 358.81 32 M358.81 32 C357.18 49.5, 359.31 61.91, 358.81 101.12 M358.81 32 C359.09 56.96, 358.51 80.38, 358.81 101.12 M358.81 101.12 C359.9 122.12, 347.59 134.17, 326.81 133.12 M358.81 101.12 C357.78 122.6, 350.41 133.59, 326.81 133.12 M326.81 133.12 C252.67 135.63, 177.04 135.71, 32 133.12 M326.81 133.12 C213.98 135.14, 99.98 134.2, 32 133.12 M32 133.12 C9.59 133.04, -0.09 122.65, 0 101.12 M32 133.12 C9.58 132.64, -0.32 124.62, 0 101.12 M0 101.12 C1.46 81.44, 0.73 65.46, 0 32 M0 101.12 C-0.45 77.7, -0.25 54.75, 0 32 M0 32 C0.44 12.01, 11.63 1.41, 32 0 M0 32 C-2.03 11.62, 12.29 0.5, 32 0" stroke="#6741d9" stroke-width="2" fill="none"></path></g><g transform="translate(945.9034832835475 331.8289768702782) rotate(0 115.49591827392578 20)"><text x="0" y="0" font-family="Virgil, Segoe UI Emoji" font-size="16px" fill="#1e1e1e" text-anchor="start" style="white-space: pre;" direction="ltr" dominant-baseline="text-before-edge">2. Call the authentication </text><text x="0" y="20" font-family="Virgil, Segoe UI Emoji" font-size="16px" fill="#1e1e1e" text-anchor="start" style="white-space: pre;" direction="ltr" dominant-baseline="text-before-edge">endpoint and forward the jwt</text></g><g transform="translate(51.914087510299254 629.8049470209402) rotate(0 161.43988037109375 25)"><text x="0" y="0" font-family="Virgil, Segoe UI Emoji" font-size="20px" fill="#1e1e1e" text-anchor="start" style="white-space: pre;" direction="ltr" dominant-baseline="text-before-edge">4. Return User data, </text><text x="0" y="25" font-family="Virgil, Segoe UI Emoji" font-size="20px" fill="#1e1e1e" text-anchor="start" style="white-space: pre;" direction="ltr" dominant-baseline="text-before-edge">so backend can do authorization</text></g><g transform="translate(39.501740541971714 700.4909872778164) rotate(0 188.74386596679688 80)"><text x="0" y="0" font-family="Virgil, Segoe UI Emoji" font-size="16px" fill="#f08c00" text-anchor="start" style="white-space: pre;" direction="ltr" dominant-baseline="text-before-edge">'x-user-payload': '{</text><text x="0" y="20" font-family="Virgil, Segoe UI Emoji" font-size="16px" fill="#f08c00" text-anchor="start" style="white-space: pre;" direction="ltr" dominant-baseline="text-before-edge">    "username":"admin",</text><text x="0" y="40" font-family="Virgil, Segoe UI Emoji" font-size="16px" fill="#f08c00" text-anchor="start" style="white-space: pre;" direction="ltr" dominant-baseline="text-before-edge">    "description":"Ini adalah user administrator",</text><text x="0" y="60" font-family="Virgil, Segoe UI Emoji" font-size="16px" fill="#f08c00" text-anchor="start" style="white-space: pre;" direction="ltr" dominant-baseline="text-before-edge">    "email":"admin@company.com",</text><text x="0" y="80" font-family="Virgil, Segoe UI Emoji" font-size="16px" fill="#f08c00" text-anchor="start" style="white-space: pre;" direction="ltr" dominant-baseline="text-before-edge">    "name":"Administrator",</text><text x="0" y="100" font-family="Virgil, Segoe UI Emoji" font-size="16px" fill="#f08c00" text-anchor="start" style="white-space: pre;" direction="ltr" dominant-baseline="text-before-edge">    "phoneNumber":"(022) 877659762",</text><text x="0" y="120" font-family="Virgil, Segoe UI Emoji" font-size="16px" fill="#f08c00" text-anchor="start" style="white-space: pre;" direction="ltr" dominant-baseline="text-before-edge">    "roles":["ADMIN, MARKETING, MANAGER"] </text><text x="0" y="140" font-family="Virgil, Segoe UI Emoji" font-size="16px" fill="#f08c00" text-anchor="start" style="white-space: pre;" direction="ltr" dominant-baseline="text-before-edge">}'</text></g><g stroke-linecap="round" transform="translate(10 596.7661244438276) rotate(0 217.05010574965038 151.5695102357168)"><path d="M32 0 C126.03 -0.69, 220.99 -1.33, 402.1 0 M32 0 C133.7 0.75, 234.5 0.77, 402.1 0 M402.1 0 C424.87 -0.79, 432.53 8.81, 434.1 32 M402.1 0 C425.1 -0.69, 435.15 9.53, 434.1 32 M434.1 32 C434.5 96.87, 435.2 157.36, 434.1 271.14 M434.1 32 C431.73 117.6, 431.82 204.2, 434.1 271.14 M434.1 271.14 C434.53 293.96, 423.11 302.04, 402.1 303.14 M434.1 271.14 C436.17 294.45, 421.52 303.89, 402.1 303.14 M402.1 303.14 C258.69 300.81, 114.93 301.51, 32 303.14 M402.1 303.14 C258.76 301.6, 115.91 301.09, 32 303.14 M32 303.14 C12.32 303.51, -0.43 290.67, 0 271.14 M32 303.14 C9.32 304.86, 0.44 292.88, 0 271.14 M0 271.14 C0.4 187.93, 1.47 100.37, 0 32 M0 271.14 C2 210.59, 1.5 148.81, 0 32 M0 32 C-1.93 11.14, 10.68 -0.76, 32 0 M0 32 C0.96 8.46, 12.05 1.31, 32 0" stroke="#6741d9" stroke-width="2" fill="none"></path></g></svg>